<svg width="287" height="287" viewBox="0 0 287 287" fill="none" xmlns="http://www.w3.org/2000/svg">
<path d="M67 171L66 162L66.82 158.75C67.42 156.35 68.74 154.91 76 151H86L94.75 153.75C99.56 155.26 107.21 157.06 120 159L120.75 160.25C121.32 161.2 127.66 161.5 146.96 161.5C166.5 161.5 172.48 161.21 173 159L180.25 158.01C184.24 157.47 192.67 155.39 199 153.39C209.57 150.05 210.88 149.84 220 152L225 158L225.55 161.75C227.14 172.66 217.91 178.83 191 184.88C152.13 193.6 88.62 188.07 67 171Z" fill="#FF6D1F"/>
<path d="M109 137L119.25 138.25C124.89 138.94 134.11 139.61 150 140L165 139L190 136C199.05 134.47 207.24 132.2 214.04 129.96C227.76 125.44 231.02 125.38 237.91 129.53C248.13 135.68 247.91 151.93 237.5 159.04C233.79 161.58 232.81 162.97 231.51 167.5C226.23 185.97 192.48 195.96 139.5 194.73C90.87 193.61 62.14 183.32 61.19 166.67C60.9 161.57 60.71 161.22 57.9 160.6C46.19 158.04 42.57 137.51 52.54 130.27C59.1 125.5 63.04 125.53 79.53 130.44C87.77 132.9 97.76 135.38 101.75 135.95L109 137ZM225 158L223.75 155.25C223.06 153.74 221.94 152.39 220 152C210.88 149.84 209.57 150.05 199 153.39C192.67 155.39 184.24 157.47 180.25 158.01L173 159L156.75 160.08C145.14 160.85 137.57 160.85 120 159C107.21 157.06 99.56 155.26 94.75 153.75L86 151L84.98 150.25C83.3 149.03 76 148.78 76 151C68.74 154.91 67.42 156.35 66.82 158.75L66 162L65.75 164.75C65.61 166.26 65.84 168.29 67 171C88.62 188.07 152.13 193.6 191 184.88C217.91 178.83 227.14 172.66 225.55 161.75L225 158ZM64 153L66.25 150.25C67.49 148.74 69.29 147.16 72 146H88L98 149L111.25 151.75C122.42 154.07 127.37 154.54 161 155H165L171 154L179 153L182.25 152.09C184.04 151.59 191.48 149.47 198.78 147.38C215.13 142.7 220.33 143.52 227.15 151.85C231.78 157.51 235.55 156.57 238.63 149C243.27 137.6 234.8 129.96 214 136L207 138L199.75 139.7C195.76 140.64 188.34 141.99 174 144L172.29 144.25C171.35 144.39 170.45 145.06 170 147L169 149L167 150H163L162.29 149.01C161.9 148.47 162.46 147.36 163.54 146.55C164.64 145.72 164.95 145.05 163 145H148L145.66 145.75C144.37 146.16 142.8 146.84 141 148L139.25 148.25C138.29 148.39 136.71 147.71 134 145L132.25 145.1C131.29 145.16 127.41 144.71 123.63 144.11C116.98 143.05 116.66 143.1 111 148H109.33C107.04 148 106.71 147.48 107.48 145.08C107.86 143.86 107.69 143 106 143L99 141L93 140L80.75 136.49C61.72 131.03 60.76 131 55.98 135.78C50.13 141.64 51.29 152.65 60 155L60.51 156.25C60.85 157.09 61.51 156.75 64 153Z" fill="white"/>
<path d="M179 153H171L169.93 152.25C169.34 151.84 168.89 150.94 169 149L170 147L174 144C188.34 141.99 195.76 140.64 199.75 139.7L207 138L214 136C234.8 129.96 243.27 137.6 238.63 149C235.55 156.57 231.78 157.51 227.15 151.85C220.33 143.52 215.13 142.7 198.78 147.38C191.48 149.47 184.04 151.59 182.25 152.09L179 153Z" fill="#FF6D1F"/>
<path d="M93 140L98 141V141.9C98 142.4 99.39 143.29 101.08 143.88C104.99 145.24 104.77 148.38 98 149L88 146L86.97 145.25C85.3 144.03 74.87 143.8 72 146C69.29 147.16 67.49 148.74 66.25 150.25L64 153L60 155C51.29 152.65 50.13 141.64 55.98 135.78C60.76 131 61.72 131.03 80.75 136.49L93 140Z" fill="#FF6D1F"/>
<path d="M98 149C104.77 148.38 104.99 145.24 101.08 143.88C99.39 143.29 98 142.4 98 141.9V141H99L106 143L105.75 144.96C105.41 147.65 108.74 150.97 111 148C116.66 143.1 116.98 143.05 123.63 144.11C127.41 144.71 131.29 145.16 132.25 145.1L134 145L133.76 146.86C133.45 149.26 135.95 152.26 139 151L139.98 152.65C141.08 154.49 158.43 153.97 160.36 152.04C163.15 149.25 158.7 147.71 141 149V148C142.8 146.84 144.37 146.16 145.66 145.75L148 145H163C164.95 145.05 164.64 145.72 163.54 146.55C162.46 147.36 161.9 148.47 162.29 149.01L163 150L164 151.25C164.8 152.25 165.2 152.25 167 150L169 149C168.89 150.94 169.34 151.84 169.93 152.25L171 153V154H165L161 155C127.37 154.54 122.42 154.07 111.25 151.75L98 149ZM122.98 147.81C114.86 147.42 113.61 149.85 121.25 151.18C123.86 151.63 126.9 151.76 128 151.46C129.1 151.17 130 150.42 130 149.79C130 148.14 130.01 148.14 122.98 147.81Z" fill="#FF6D1F"/>
<path d="M133 118L131 124C124.33 131.58 122.17 129.43 124.86 123.03C127.95 115.64 127.61 113.03 122.35 104C116.34 93.68 117.83 81 125.05 81C127.43 81 127.41 81.58 124.82 91.23C123.55 95.97 123.55 95.97 128.28 103.04C131.91 108.49 133 111.02 133 114.06V118Z" fill="white"/>
<path d="M167 86L165.25 88.75C164.02 90.68 163.72 92.32 165 97C173.79 109.36 174.85 114.57 172.7 120.63C169.03 130.99 163.65 130.7 166.57 120.31C168.48 113.5 168.48 113.5 163.74 105.7C158.56 97.16 157.85 93.08 160.43 86.61C162.45 81.54 166.4 79.44 166.75 83.25L167 86Z" fill="white"/>
<path d="M146 99.0001L149 103C154.77 115.76 153.27 123.84 148.24 126.88C144.82 128.95 143.9 125.72 146.42 120.51C148.88 115.41 148.35 112.7 143.49 105.33C137.22 95.8401 137.58 83.4701 144.19 81.3901C147.22 80.4401 147.58 82.0601 145.71 88.3101C144.62 91.9501 144.43 94.3201 145.08 96.2501L146 99.0001Z" fill="white"/>
<path d="M139 151L141 149C158.7 147.71 163.15 149.25 160.36 152.04C158.43 153.97 141.08 154.49 139.98 152.65L139 151Z" fill="#FF6D1F"/>
<path d="M120 159C137.57 160.85 145.14 160.85 156.75 160.08L173 159C172.48 161.21 166.5 161.5 146.96 161.5C127.66 161.5 121.32 161.2 120.75 160.25L120 159Z" fill="#FF6D1F"/>
<path d="M122.98 147.81C130.01 148.14 130 148.14 130 149.79C130 150.42 129.1 151.17 128 151.46C126.9 151.76 123.86 151.63 121.25 151.18C113.61 149.85 114.86 147.42 122.98 147.81Z" fill="#FF6D1F"/>
<path d="M134 145C136.71 147.71 138.29 148.39 139.25 148.25L141 148V149L139 151C135.95 152.26 133.45 149.26 133.76 146.86L134 145Z" fill="#FF6D1F"/>
<path d="M72 146C74.87 143.8 85.3 144.03 86.97 145.25L88 146H72Z" fill="#FF6D1F"/>
<path d="M106 143C107.69 143 107.86 143.86 107.48 145.08C106.71 147.48 107.04 148 109.33 148H111C108.74 150.97 105.41 147.65 105.75 144.96L106 143Z" fill="#FF6D1F"/>
<path d="M76 151C76 148.78 83.3 149.03 84.98 150.25L86 151H76Z" fill="#FF6D1F"/>
<path d="M66 162L67 171C65.84 168.29 65.61 166.26 65.75 164.75L66 162Z" fill="#FF6D1F"/>
<path d="M220 152C221.94 152.39 223.06 153.74 223.75 155.25L225 158L220 152Z" fill="#FF6D1F"/>
<path d="M171 154V153H179L171 154Z" fill="#FF6D1F"/>
<path d="M60 155L64 153C61.51 156.75 60.85 157.09 60.51 156.25L60 155Z" fill="#FF6D1F"/>
<path d="M165 155V154H171L165 155Z" fill="#FF6D1F"/>
<path d="M163 150H167C165.2 152.25 164.8 152.25 164 151.25L163 150Z" fill="#FF6D1F"/>
<path d="M170 147C170.45 145.06 171.35 144.39 172.29 144.25L174 144L170 147Z" fill="#FF6D1F"/>
<path d="M93 140L99 141H98L93 140Z" fill="#FF6D1F"/>
<path d="M161 155L165 154V155H161Z" fill="#FF6D1F"/>
</svg>
