<svg width="523" height="527" viewBox="0 0 523 527" fill="none" xmlns="http://www.w3.org/2000/svg">
<path d="M183 228L182 219L182.82 215.75C183.42 213.35 184.74 211.91 192 208H202L210.75 210.75C215.56 212.26 223.21 214.06 236 216L236.75 217.25C237.32 218.2 243.66 218.5 262.96 218.5C282.5 218.5 288.48 218.21 289 216L296.25 215.01C300.24 214.47 308.67 212.39 315 210.39C325.57 207.05 326.88 206.84 336 209L341 215L341.55 218.75C343.14 229.66 333.91 235.83 307 241.88C268.13 250.6 204.62 245.07 183 228Z" fill="#FF6D1F"/>
<path d="M225 194L235.25 195.25C240.89 195.94 250.11 196.61 266 197L281 196L306 193C315.05 191.47 323.24 189.2 330.04 186.96C343.76 182.44 347.02 182.38 353.91 186.53C364.13 192.68 363.91 208.93 353.5 216.04C349.79 218.58 348.81 219.97 347.51 224.5C342.23 242.97 308.48 252.96 255.5 251.73C206.87 250.61 178.14 240.32 177.19 223.67C176.9 218.57 176.71 218.22 173.9 217.6C162.19 215.04 158.57 194.51 168.54 187.27C175.1 182.5 179.04 182.53 195.53 187.44C203.77 189.9 213.76 192.38 217.75 192.95L225 194ZM341 215L339.75 212.25C339.06 210.74 337.94 209.39 336 209C326.88 206.84 325.57 207.05 315 210.39C308.67 212.39 300.24 214.47 296.25 215.01L289 216L272.75 217.08C261.14 217.85 253.57 217.85 236 216C223.21 214.06 215.56 212.26 210.75 210.75L202 208L200.98 207.25C199.3 206.03 192 205.78 192 208C184.74 211.91 183.42 213.35 182.82 215.75L182 219L181.75 221.75C181.61 223.26 181.84 225.29 183 228C204.62 245.07 268.13 250.6 307 241.88C333.91 235.83 343.14 229.66 341.55 218.75L341 215ZM180 210L182.25 207.25C183.49 205.74 185.29 204.16 188 203H204L214 206L227.25 208.75C238.42 211.07 243.37 211.54 277 212H281L287 211L295 210L298.25 209.09C300.04 208.59 307.48 206.47 314.78 204.38C331.13 199.7 336.33 200.52 343.15 208.85C347.78 214.51 351.55 213.57 354.63 206C359.27 194.6 350.8 186.96 330 193L323 195L315.75 196.7C311.76 197.64 304.34 198.99 290 201L288.29 201.25C287.35 201.39 286.45 202.06 286 204L285 206L283 207H279L278.29 206.01C277.9 205.47 278.46 204.36 279.54 203.55C280.64 202.72 280.95 202.05 279 202H264L261.66 202.75C260.37 203.16 258.8 203.84 257 205L255.25 205.25C254.29 205.39 252.71 204.71 250 202L248.25 202.1C247.29 202.16 243.41 201.71 239.63 201.11C232.98 200.05 232.66 200.1 227 205H225.33C223.04 205 222.71 204.48 223.48 202.08C223.86 200.86 223.69 200 222 200L215 198L209 197L196.75 193.49C177.72 188.03 176.76 188 171.98 192.78C166.13 198.64 167.29 209.65 176 212L176.51 213.25C176.85 214.09 177.51 213.75 180 210Z" fill="white"/>
<path d="M211 370L210.75 360.75C210.5 351.5 210.5 351.5 204 352C205.06 368.76 203.75 372.02 200.09 370.73L198 370L197.82 347.29C197.63 324.57 197.63 324.57 203 326L204 345L204.25 346.75C204.45 348.15 205.05 348.35 210 347V326L208 323L204 321V319V299L199.5 298.28C196.24 297.76 195 297.9 195 300V316V318L194.75 319.75C194.58 320.94 193.46 321.58 188 322V309V267C189.05 261.47 194.41 259.38 200.72 259.75L205 260L207.13 261.45C208.31 262.25 209.88 264.28 212 269L212.28 292.25C212.44 305.04 212.92 316.93 213.35 318.68C213.78 320.43 213.9 322.1 213.62 322.38C213.33 322.67 213.75 324.5 216 330V365V366C219.14 369.52 215.2 372.97 212.77 371.25L211 370ZM201 266L199.03 265.75C197.94 265.61 196.82 265.84 196 267L195 268V290L195.72 291C196.12 291.55 198.14 292 200.22 292C204 292 204 292 204 279.43C204 269.11 203.73 266.78 201 266Z" fill="white"/>
<path d="M224 371H226L229.85 371.25C231.97 371.39 234.22 371.16 236 370L237.25 369.06C238.59 368.05 239.74 336.43 238.63 330.92C237.45 324.99 231.22 322.25 223 326C218.25 318.74 217.55 321.68 216.76 344.25L216 366V365V330C213.75 324.5 213.33 322.67 213.62 322.38C213.9 322.1 213.78 320.43 213.35 318.68C212.92 316.93 212.44 305.04 212.28 292.25L212 269V265C213.34 306.72 213.95 314.52 214.79 315.28C217.43 317.65 218.08 312.47 218.04 289.25L218 266L219.11 267.75C219.87 268.93 220.19 277.84 220.11 295.21C220.04 311.45 220.37 321.13 222 322H225.2C228.14 322 228.35 321.79 227 317L228 268L228.79 293.67C229.63 320.92 230.34 324.16 236 319L237.73 320.25C241.13 322.71 245.03 322.39 247 317C252.07 322.5 252.07 322.5 254.09 319.75C257.97 314.45 256.5 271.1 252.3 267.21C250.54 265.58 248.85 263.29 248.55 262.12L248 260L249 261L250 265L253.25 268.25C256.5 271.5 256.5 271.5 258 320L258.75 321.25C259.25 322.08 260.42 322.25 265 321L265.74 293.5C266.49 266 266.49 266 273 266L270 268.06C267 270.12 267 270.12 267 296.06C267 310.33 267.27 322.27 267.61 322.61C268.71 323.71 275.09 321.93 275.69 320.37C276.95 317.08 276.55 267.55 274 265V261L273.75 259.49C273.61 258.67 272.94 257.99 271 258C273.44 255.74 274.06 255.92 275.6 257.7C277.48 259.88 277.56 259.88 282.94 258.2C287.51 256.77 288.92 256.7 291.69 257.75L295 259L293.75 258.91C293.06 258.85 290.28 259.21 287.57 259.71C278.8 261.3 278.55 262.13 278.19 291.5C277.81 322.01 277.83 322.15 282.49 322.1C286 322.06 286 322.06 286 300L294 299H295L295.25 309.79C295.45 318.53 295.83 320.91 299 324L291 325L290.25 325.37C286.06 327.41 285.66 329.89 287 369C285.06 367.84 283.49 367.61 282.25 367.75L280 368L280.25 347.75C280.55 323.37 280.75 323.78 269.02 324.65C265.15 324.94 261.76 325.58 261 327L264 333V367H263C261.62 331.2 261.54 330.78 258.76 331.18C256.52 331.5 256.5 331.68 256 351.16C255.46 372.41 255.03 373.91 250.25 371.25L248 370H249L251.5 370.7C253.62 371.3 254 371.08 254 367V356V329H257C259.53 329 260 328.61 260 326.5C260 324.39 259.53 324 254 324H242L241.3 326.5C240.65 328.79 240.86 329 247 329V330C240.51 330 240 332.05 239.99 350.32C239.98 370.38 239.42 372.26 232.85 374.19C228.98 375.33 228.47 375.25 226.32 373.21L224 371ZM286.27 324.87C284.66 323.26 282 324.56 282 326.97C282 328.09 282.55 329 283.21 329C283.88 329 285.1 328.33 285.92 327.51C287.04 326.39 287.13 325.73 286.27 324.87ZM288.9 302.56C287.95 303.15 287.71 312.3 288.52 317.75C288.78 319.54 289.23 321 289.5 321H291C291.6 321 292 317.17 292 311.5C292 302.36 291.51 300.95 288.9 302.56Z" fill="#FF6D1F"/>
<path d="M359 301L358.75 299.49C358.57 298.41 357.24 297.99 354.01 297.99C351.54 298 349.63 298.45 350 300L351 322L343 323L342 273C344.92 260.45 349.93 257.79 358.06 259.75C366.49 261.78 366.98 263.44 367.11 290.8C367.18 303.28 367.63 315.41 368.11 317.75L369 322L366.35 323.05C361.04 325.14 359 321.65 359 301ZM358 292L359.25 291.25C360.2 290.68 360.32 287.84 359 268V267L357.24 265.75C356.23 265.04 354.73 264.82 352 266L350.93 266.75C350.34 267.16 349.89 269.41 350 276V284C350 292 350 292 358 292Z" fill="white"/>
<path d="M295 259L302 264V288L303 317L304.68 317.75C305.64 318.18 306.07 319.04 305 321L304 322L300.26 321.25C296.51 320.5 296.51 320.5 295 299H294L289.75 298.75C287.41 298.61 285.61 298.84 286 300C286 322.06 286 322.06 282.49 322.1C277.83 322.15 277.81 322.01 278.19 291.5C278.55 262.13 278.8 261.3 287.57 259.71C290.28 259.21 293.06 258.85 293.75 258.91L295 259ZM286 292L295 291V268L294.11 266.39C293.43 265.18 292.34 264.93 286 266V292Z" fill="white"/>
<path d="M167 316L167.75 317.25C168.35 318.25 168.85 318.25 172 316C173.58 301.22 172.35 298.72 164.42 292.97C155.73 286.65 152.9 274.51 157.85 264.8C162.83 255.02 181 258.78 181 269.59V272L180.18 276.75C179.31 281.81 175.39 284.11 173 279C173 264.18 164.81 262.08 164.14 271.86C163.44 282.1 164.06 283.41 172.01 288.51C175.95 291.03 179.35 293.75 179.58 294.55L180 296V316C176.91 324.47 162.29 324.86 157.63 319C155.38 316.19 155.34 303.8 157.57 301.57C161.69 297.45 163.82 299.43 164.17 307.71C164.39 312.82 164.92 315.51 165.75 315.71L167 316Z" fill="white"/>
<path d="M311 299L310 265H308C307.61 262.29 308.06 261.16 308.75 260.75L310 260L312.25 260.25C313.49 260.39 315.11 260.9 315.86 261.38C316.61 261.86 317.4 261.97 318 261C333.28 256.98 335.18 261.66 335.08 292.25L335 314L336.53 316.25C337.64 317.9 337.78 318.97 336 322L328 321L327 275V268L326.25 266.47C325.84 265.62 324.94 264.95 323 265L319 267L317.75 268.75C316.78 270.1 316.67 275.56 318 315V317.8C318 319.34 317.33 320.91 315 322H313C311.12 322 311 321.33 311 299Z" fill="white"/>
<path d="M218 266L216 262L218.75 260.95C220.26 260.38 222.06 259.93 224 260C228.26 259.98 231.93 259.88 234.9 259.75C240.2 259.53 241.86 260.42 242.75 264L243 265L244 316L247 317C245.03 322.39 241.13 322.71 237.73 320.25L236 319V268L235.65 266.75C235.46 266.06 234.11 265.61 230 266L228 268L227 317L226.75 318.59C226.61 319.47 225.49 320.59 222 322C220.37 321.13 220.04 311.45 220.11 295.21C220.19 277.84 219.87 268.93 219.11 267.75L218 266Z" fill="white"/>
<path d="M295 210H287L285.93 209.25C285.34 208.84 284.89 207.94 285 206L286 204L290 201C304.34 198.99 311.76 197.64 315.75 196.7L323 195L330 193C350.8 186.96 359.27 194.6 354.63 206C351.55 213.57 347.78 214.51 343.15 208.85C336.33 200.52 331.13 199.7 314.78 204.38C307.48 206.47 300.04 208.59 298.25 209.09L295 210Z" fill="#FF6D1F"/>
<path d="M209 197L214 198V198.9C214 199.4 215.39 200.29 217.08 200.88C220.99 202.24 220.77 205.38 214 206L204 203L202.97 202.25C201.3 201.03 190.87 200.8 188 203C185.29 204.16 183.49 205.74 182.25 207.25L180 210L176 212C167.29 209.65 166.13 198.64 171.98 192.78C176.76 188 177.72 188.03 196.75 193.49L209 197Z" fill="#FF6D1F"/>
<path d="M303 367V328L304.64 328.47C307.47 329.28 309.47 327.37 309.49 323.83C309.5 320.97 309.19 320.53 305 321C306.07 319.04 305.64 318.18 304.68 317.75L303 317L302 288V264C303.63 264.87 304 274.33 304 289.77C304 312.17 304.16 314.56 305.74 315.48C308.92 317.34 309.53 311.58 308.74 287.39L308 265H310L311 299C311 321.33 311.12 322 313 322H315H317.22C319.29 322 319.39 321.7 318 313L319 267H321C321 320.19 321 320.19 323.51 322.84C324.89 324.3 325.79 325.84 325.51 326.25L325 327L322.75 325.87C312.21 320.58 308.96 325.63 309 364V366C306.29 365.61 304.94 365.84 304.25 366.25L303 367Z" fill="#FF6D1F"/>
<path d="M258 320L257.75 292.75C257.5 265.5 257.5 265.5 250 265L249 261L271 259L274 261V265H273L268.95 265.25C264.9 265.5 264.9 265.5 265 321C260.42 322.25 259.25 322.08 258.75 321.25L258 320Z" fill="white"/>
<path d="M273 266V265H274C276.55 267.55 276.95 317.08 275.69 320.37C275.09 321.93 268.71 323.71 267.61 322.61C267.27 322.27 267 310.33 267 296.06C267 270.12 267 270.12 270 268.06L273 266Z" fill="#FF6D1F"/>
<path d="M287 369C285.66 329.89 286.06 327.41 290.25 325.37L291 325H299L303 328V367C301.23 371.27 294.76 372.44 290.65 370.61L287 369ZM297 366L298.07 365.25C299.48 364.27 299.41 330.29 297 329L295 328.3C293.72 327.85 293 328.03 293 330L292 333V362V363.75C292 364.71 292.45 365.61 294 366H297Z" fill="white"/>
<path d="M313 371L311.78 369.94C311.11 369.36 310.21 367.79 309 364C308.96 325.63 312.21 320.58 322.75 325.87L325 327C327.25 331.4 327.03 339.35 325.78 339.75L325 340L323.32 339.75C322.16 339.58 321.39 338.03 320 330H316H315L314 348V359V362.25C314 364.04 314.45 365.61 316 366H319L320.75 364.24C322.29 362.68 322.35 361.98 320 354L318.75 353.71C315.42 352.93 316.82 349 324 349L325.08 351.25C325.68 352.49 326.13 356.23 326.08 359.56C326.04 362.89 326.45 366.6 328 370C327.28 371.16 323.91 371.39 320.04 371.25L313 371Z" fill="white"/>
<path d="M222 367V328L223 326C231.22 322.25 237.45 324.99 238.63 330.92C239.74 336.43 238.59 368.05 237.25 369.06L236 370L226 371H224L222 367ZM232 365H233L233.8 348C234.24 338.65 234.24 331 233 331L230.57 329.44C228.96 328.41 227.94 328.24 227 330V364L228.92 365.25C229.98 365.94 231.11 366.16 232 365Z" fill="white"/>
<path d="M228 268L230 266L236 268V319C230.34 324.16 229.63 320.92 228.79 293.67L228 268Z" fill="#FF6D1F"/>
<path d="M214 206C220.77 205.38 220.99 202.24 217.08 200.88C215.39 200.29 214 199.4 214 198.9V198H215L222 200L221.75 201.96C221.41 204.65 224.74 207.97 227 205C232.66 200.1 232.98 200.05 239.63 201.11C243.41 201.71 247.29 202.16 248.25 202.1L250 202L249.76 203.86C249.45 206.26 251.95 209.26 255 208L255.98 209.65C257.08 211.49 274.43 210.97 276.36 209.04C279.15 206.25 274.7 204.71 257 206V205C258.8 203.84 260.37 203.16 261.66 202.75L264 202H279C280.95 202.05 280.64 202.72 279.54 203.55C278.46 204.36 277.9 205.47 278.29 206.01L279 207L280 208.25C280.8 209.25 281.2 209.25 283 207L285 206C284.89 207.94 285.34 208.84 285.93 209.25L287 210V211H281L277 212C243.37 211.54 238.42 211.07 227.25 208.75L214 206ZM238.98 204.81C230.86 204.42 229.61 206.85 237.25 208.18C239.86 208.63 242.9 208.76 244 208.46C245.1 208.17 246 207.42 246 206.79C246 205.14 246.01 205.14 238.98 204.81Z" fill="#FF6D1F"/>
<path d="M187 301L188 309V322L192.25 322.75C196.5 323.5 196.5 323.5 195 318V316V300L204 299V319L203.26 310.43C201.93 294.89 196.61 296.27 197.17 312.02C197.51 321.58 200.14 326.11 204 321L208 323L210 334V347C205.05 348.35 204.45 348.15 204.25 346.75L204 345L204.25 337.11C204.39 332.77 204.16 328.5 203 326C197.63 324.57 197.63 324.57 197.82 347.29L198 370C196.4 369.14 195.95 361.71 195.88 350.71C195.73 328.13 195.51 326.94 190.99 325C187.5 323.5 187.5 323.5 186.56 312.67C186.05 306.72 185.94 301.66 186.31 301.42L187 301Z" fill="#FF6D1F"/>
<path d="M249 175L247 181C240.33 188.58 238.17 186.43 240.86 180.03C243.95 172.64 243.61 170.03 238.35 161C232.34 150.68 233.83 138 241.05 138C243.43 138 243.41 138.58 240.82 148.23C239.55 152.97 239.55 152.97 244.28 160.04C247.91 165.49 249 168.02 249 171.06V175Z" fill="white"/>
<path d="M283 143L281.25 145.75C280.02 147.68 279.72 149.32 281 154C289.79 166.36 290.85 171.57 288.7 177.63C285.03 187.99 279.65 187.7 282.57 177.31C284.48 170.5 284.48 170.5 279.74 162.7C274.56 154.16 273.85 150.08 276.43 143.61C278.45 138.54 282.4 136.44 282.75 140.25L283 143Z" fill="white"/>
<path d="M262 156L265 160C270.77 172.76 269.27 180.84 264.24 183.88C260.82 185.95 259.9 182.72 262.42 177.51C264.88 172.41 264.35 169.7 259.49 162.33C253.22 152.84 253.58 140.47 260.19 138.39C263.22 137.44 263.58 139.06 261.71 145.31C260.62 148.95 260.43 151.32 261.08 153.25L262 156Z" fill="white"/>
<path d="M249 370L248.75 349.46C248.61 338.17 248.16 328.72 247 328H244.5C242.67 328 242 327.47 242 324H254L255.25 325.41C256.25 326.54 256.25 327.04 254 329V356V367L253.17 368.5C252.71 369.33 251.59 370 249 370Z" fill="white"/>
<path d="M351 322L350 300L353.46 299.31C355.71 298.86 357.29 299.03 359 301C359 321.65 361.04 325.14 366.35 323.05L369 322C369 325.65 365.39 327.34 362.42 326.53C357.98 325.32 356 320.7 356 311.56C356.01 304.54 355.78 303.5 354.25 303.5C352.72 303.5 352.5 304.59 352.47 312.31C352.45 317.15 352.11 321.31 351.72 321.56L351 322Z" fill="#FF6D1F"/>
<path d="M286 292V266C292.34 264.93 293.43 265.18 294.11 266.39L295 268V291L286 292ZM288.9 270.56C287.98 271.13 287.63 286.89 288.52 288.25C288.78 288.66 289.56 288.87 290.25 288.71C291.11 288.51 291.59 285.55 291.79 279.21C292.07 270.25 291.61 268.89 288.9 270.56Z" fill="#FF6D1F"/>
<path d="M227 364V360V335V330C227.94 328.24 228.96 328.41 230.57 329.44L233 331V335L232 365C231.11 366.16 229.98 365.94 228.92 365.25L227 364Z" fill="#FF6D1F"/>
<path d="M195 290V268L196 267L201 266C203.73 266.78 204 269.11 204 279.43C204 292 204 292 200.22 292C198.14 292 196.12 291.55 195.72 291L195 290ZM199.75 270.19C198.18 269.89 198 270.85 198 279.43C198 286.21 198.35 289 199.2 289C199.86 289 200.78 288.62 201.24 288.16C202.98 286.42 201.67 270.55 199.75 270.19Z" fill="#FF6D1F"/>
<path d="M294 366L293 330C293 328.03 293.72 327.85 295 328.3L297 329V331V365V366H294Z" fill="#FF6D1F"/>
<path d="M271 366L270 360V336L270.25 333.25C270.45 331.05 270.95 330.55 275 331V365H274L271 366Z" fill="#FF6D1F"/>
<path d="M204 319V321C200.14 326.11 197.51 321.58 197.17 312.02C196.61 296.27 201.93 294.89 203.26 310.43L204 319Z" fill="#FF6D1F"/>
<path d="M350 276C349.89 269.41 350.34 267.16 350.93 266.75L352 266H356L356.25 277.64C356.45 286.75 356.2 289.39 355.13 289.76C353.01 290.51 352.03 288.01 352.02 281.75C352.01 278.59 351.55 276 350 276Z" fill="#FF6D1F"/>
<path d="M225 194C258.75 194.92 276.9 194.7 287.25 194.1L306 193L281 196L266 197C250.11 196.61 240.89 195.94 235.25 195.25L225 194Z" fill="#FF6D1F"/>
<path d="M255 208L257 206C274.7 204.71 279.15 206.25 276.36 209.04C274.43 210.97 257.08 211.49 255.98 209.65L255 208Z" fill="#FF6D1F"/>
<path d="M336 322C337.78 318.97 337.64 317.9 336.53 316.25L335 314C340.68 317.49 341.08 314.91 340.31 294C339.77 279.24 339.89 274.32 340.8 273.75L342 273L343 323L336 322Z" fill="#FF6D1F"/>
<path d="M350 276C351.55 276 352.01 278.59 352.02 281.75C352.03 288.01 353.01 290.51 355.13 289.76C356.2 289.39 356.45 286.75 356.25 277.64L356 266L359 267V268L358 292C350 292 350 292 350 284V276Z" fill="#FF6D1F"/>
<path d="M327 275L328 321C325.01 318.75 324.15 276.84 325.84 275.75L327 275Z" fill="#FF6D1F"/>
<path d="M236 216C253.57 217.85 261.14 217.85 272.75 217.08L289 216C288.48 218.21 282.5 218.5 262.96 218.5C243.66 218.5 237.32 218.2 236.75 217.25L236 216Z" fill="#FF6D1F"/>
<path d="M319 364L319.02 361.75C319.06 357.14 316.93 354.06 315 360L314 359V348L315 330H316C316.5 346.43 316.5 346.43 321.25 347.72L326 349H324C316.82 349 315.42 352.93 318.75 353.71L320 354L319 364Z" fill="#FF6D1F"/>
<path d="M199.75 270.19C201.67 270.55 202.98 286.42 201.24 288.16C200.78 288.62 199.86 289 199.2 289C198.35 289 198 286.21 198 279.43C198 270.85 198.18 269.89 199.75 270.19Z" fill="#FF6D1F"/>
<path d="M288.9 270.56C291.61 268.89 292.07 270.25 291.79 279.21C291.59 285.55 291.11 288.51 290.25 288.71C289.56 288.87 288.78 288.66 288.52 288.25C287.63 286.89 287.98 271.13 288.9 270.56Z" fill="#FF6D1F"/>
<path d="M288.9 302.56C291.51 300.95 292 302.36 292 311.5C292 317.17 291.6 321 291 321H289.5C289.23 321 288.78 319.54 288.52 317.75C287.71 312.3 287.95 303.15 288.9 302.56Z" fill="#FF6D1F"/>
<path d="M265 321C264.9 265.5 264.9 265.5 268.95 265.25L273 265V266C266.49 266 266.49 266 265.74 293.5L265 321Z" fill="#FF6D1F"/>
<path d="M250 265C257.5 265.5 257.5 265.5 257.75 292.75L258 320C256.5 271.5 256.5 271.5 253.25 268.25L250 265Z" fill="#FF6D1F"/>
<path d="M303 328L301 324L304 322L305 321C309.19 320.53 309.5 320.97 309.49 323.83C309.47 327.37 307.47 329.28 304.64 328.47L303 328Z" fill="#FF6D1F"/>
<path d="M187 301C186.61 277.99 186.84 270.34 187.25 269.15L188 267V309L187 301Z" fill="#FF6D1F"/>
<path d="M319 267L318 313V315C316.67 275.56 316.78 270.1 317.75 268.75L319 267Z" fill="#FF6D1F"/>
<path d="M238.98 204.81C246.01 205.14 246 205.14 246 206.79C246 207.42 245.1 208.17 244 208.46C242.9 208.76 239.86 208.63 237.25 208.18C229.61 206.85 230.86 204.42 238.98 204.81Z" fill="#FF6D1F"/>
<path d="M276 331H275C270.95 330.55 270.45 331.05 270.25 333.25L270 336V360L271 366H270C269.5 329.9 269.52 329.73 271.76 328.71C273.55 327.9 274.23 328.03 275.01 329.34L276 331Z" fill="#FF6D1F"/>
<path d="M248 370L247 330V329V328C248.16 328.72 248.61 338.17 248.75 349.46L249 370H248Z" fill="#FF6D1F"/>
<path d="M297 366V365V331V329C299.41 330.29 299.48 364.27 298.07 365.25L297 366Z" fill="#FF6D1F"/>
<path d="M221 364V330L222 328V367L221 364Z" fill="#FF6D1F"/>
<path d="M292 362V333L293 330L294 366C292.45 365.61 292 364.71 292 363.75V362Z" fill="#FF6D1F"/>
<path d="M233 365V335V331C234.24 331 234.24 338.65 233.8 348L233 365Z" fill="#FF6D1F"/>
<path d="M316 366L315 360C316.93 354.06 319.06 357.14 319.02 361.75L319 364V366H316Z" fill="#FF6D1F"/>
<path d="M275 365V331H276L275 365Z" fill="#FF6D1F"/>
<path d="M299 324C295.83 320.91 295.45 318.53 295.25 309.79L295 299C296.51 320.5 296.51 320.5 300.26 321.25L304 322L301 324H299Z" fill="#FF6D1F"/>
<path d="M232 365L233 335V365H232Z" fill="#FF6D1F"/>
<path d="M328 370C326.45 366.6 326.04 362.89 326.08 359.56C326.13 356.23 325.68 352.49 325.08 351.25L324 349H326C326.94 360.24 327.46 364.4 327.77 365.5C328.08 366.6 328.26 368.06 328.17 368.75L328 370Z" fill="#FF6D1F"/>
<path d="M203 326C204.16 328.5 204.39 332.77 204.25 337.11L204 345L203 326Z" fill="#FF6D1F"/>
<path d="M358 292L359 268C360.32 287.84 360.2 290.68 359.25 291.25L358 292Z" fill="#FF6D1F"/>
<path d="M210 367V359.75C210 355.73 209.56 352.39 208 352H204C210.5 351.5 210.5 351.5 210.75 360.75L211 370L210 367Z" fill="#FF6D1F"/>
<path d="M254 329C256.25 327.04 256.25 326.54 255.25 325.41L254 324C259.53 324 260 324.39 260 326.5C260 328.61 259.53 329 257 329H254Z" fill="#FF6D1F"/>
<path d="M249 261L248 260L270 259H271L249 261Z" fill="#FF6D1F"/>
<path d="M250 202C252.71 204.71 254.29 205.39 255.25 205.25L257 205V206L255 208C251.95 209.26 249.45 206.26 249.76 203.86L250 202Z" fill="#FF6D1F"/>
<path d="M173 279C175.39 284.11 179.31 281.81 180.18 276.75L181 272C180.5 282.5 180.5 282.5 176.75 282.81C173.53 283.08 173 282.83 173 281.06V279Z" fill="#FF6D1F"/>
<path d="M286.27 324.87C287.13 325.73 287.04 326.39 285.92 327.51C285.1 328.33 283.88 329 283.21 329C282.55 329 282 328.09 282 326.97C282 324.56 284.66 323.26 286.27 324.87Z" fill="#FF6D1F"/>
<path d="M180 316V296L181 301V313L180 316Z" fill="#FF6D1F"/>
<path d="M319 366V364L320 354C322.35 361.98 322.29 362.68 320.75 364.24L319 366Z" fill="#FF6D1F"/>
<path d="M188 203C190.87 200.8 201.3 201.03 202.97 202.25L204 203H188Z" fill="#FF6D1F"/>
<path d="M208 352C209.56 352.39 210 355.73 210 359.75V367L208 352Z" fill="#FF6D1F"/>
<path d="M320 330C321.39 338.03 322.16 339.58 323.32 339.75L325 340C320.7 340.48 320.48 340.04 320.25 335.25L320 330Z" fill="#FF6D1F"/>
<path d="M205 260C208.97 261.16 210.55 262.29 211.06 263.25L212 265V269C209.88 264.28 208.31 262.25 207.13 261.45L205 260Z" fill="#FF6D1F"/>
<path d="M222 200C223.69 200 223.86 200.86 223.48 202.08C222.71 204.48 223.04 205 225.33 205H227C224.74 207.97 221.41 204.65 221.75 201.96L222 200Z" fill="#FF6D1F"/>
<path d="M188 322C193.46 321.58 194.58 320.94 194.75 319.75L195 318C196.5 323.5 196.5 323.5 192.25 322.75L188 322Z" fill="#FF6D1F"/>
<path d="M350 300C349.63 298.45 351.54 298 354.01 297.99C357.24 297.99 358.57 298.41 358.75 299.49L359 301C357.29 299.03 355.71 298.86 353.46 299.31L350 300Z" fill="#FF6D1F"/>
<path d="M192 208C192 205.78 199.3 206.03 200.98 207.25L202 208H192Z" fill="#FF6D1F"/>
<path d="M283 143C281.84 146.49 281.39 148.96 281.25 150.75L281 154C279.72 149.32 280.02 147.68 281.25 145.75L283 143Z" fill="#FF6D1F"/>
<path d="M226 371L236 370C234.22 371.16 231.97 371.39 229.85 371.25L226 371Z" fill="#FF6D1F"/>
<path d="M208 323L210 326V334L208 323Z" fill="#FF6D1F"/>
<path d="M315 322C317.33 320.91 318 319.34 318 317.8V315V313C319.39 321.7 319.29 322 317.22 322H315Z" fill="#FF6D1F"/>
<path d="M222 322C225.49 320.59 226.61 319.47 226.75 318.59L227 317C228.35 321.79 228.14 322 225.2 322H222Z" fill="#FF6D1F"/>
<path d="M182 219L183 228C181.84 225.29 181.61 223.26 181.75 221.75L182 219Z" fill="#FF6D1F"/>
<path d="M336 209C337.94 209.39 339.06 210.74 339.75 212.25L341 215L336 209Z" fill="#FF6D1F"/>
<path d="M309 366V364C310.21 367.79 311.11 369.36 311.78 369.94L313 371C310.27 370.61 309.39 369.51 309.25 368.25L309 366Z" fill="#FF6D1F"/>
<path d="M242 324C242 327.47 242.67 328 244.5 328H247V329C240.86 329 240.65 328.79 241.3 326.5L242 324Z" fill="#FF6D1F"/>
<path d="M294 299L286 300C285.61 298.84 287.41 298.61 289.75 298.75L294 299Z" fill="#FF6D1F"/>
<path d="M195 300C195 297.9 196.24 297.76 199.5 298.28L204 299L195 300Z" fill="#FF6D1F"/>
<path d="M310 260C312.52 258.84 314.32 259.06 315.62 259.75L318 261C317.4 261.97 316.61 261.86 315.86 261.38C315.11 260.9 313.49 260.39 312.25 260.25L310 260Z" fill="#FF6D1F"/>
<path d="M216 262C217.57 260.06 219.37 259.61 221.01 259.75L224 260C222.06 259.93 220.26 260.38 218.75 260.95L216 262Z" fill="#FF6D1F"/>
<path d="M249 370C251.59 370 252.71 369.33 253.17 368.5L254 367C254 371.08 253.62 371.3 251.5 370.7L249 370Z" fill="#FF6D1F"/>
<path d="M314 359L315 360L316 366C314.45 365.61 314 364.04 314 362.25V359Z" fill="#FF6D1F"/>
<path d="M261 327C262.16 327.63 262.84 328.98 263.25 330.4L264 333L261 327Z" fill="#FF6D1F"/>
<path d="M291 325L299 324V325H291Z" fill="#FF6D1F"/>
<path d="M167 316H172C168.85 318.25 168.35 318.25 167.75 317.25L167 316Z" fill="#FF6D1F"/>
<path d="M356 266H352C354.73 264.82 356.23 265.04 357.24 265.75L359 267L356 266Z" fill="#FF6D1F"/>
<path d="M230 266C234.11 265.61 235.46 266.06 235.65 266.75L236 268L230 266Z" fill="#FF6D1F"/>
<path d="M287 211V210H295L287 211Z" fill="#FF6D1F"/>
<path d="M176 212L180 210C177.51 213.75 176.85 214.09 176.51 213.25L176 212Z" fill="#FF6D1F"/>
<path d="M299 325V324H301L303 328L299 325Z" fill="#FF6D1F"/>
<path d="M263 367H264L265 371C263.45 370.61 263 369.71 263 368.75V367Z" fill="#FF6D1F"/>
<path d="M270 366H271L274 365C274 366.97 273.28 367.15 272 366.7L270 366Z" fill="#FF6D1F"/>
<path d="M323 266V265C324.94 264.95 325.84 265.62 326.25 266.47L327 268L323 266Z" fill="#FF6D1F"/>
<path d="M196 267C196.82 265.84 197.94 265.61 199.03 265.75L201 266L196 267Z" fill="#FF6D1F"/>
<path d="M271 259H270L271 258C272.94 257.99 273.61 258.67 273.75 259.49L274 261L271 259Z" fill="#FF6D1F"/>
<path d="M281 212V211H287L281 212Z" fill="#FF6D1F"/>
<path d="M279 207H283C281.2 209.25 280.8 209.25 280 208.25L279 207Z" fill="#FF6D1F"/>
<path d="M286 204C286.45 202.06 287.35 201.39 288.29 201.25L290 201L286 204Z" fill="#FF6D1F"/>
<path d="M209 197L215 198H214L209 197Z" fill="#FF6D1F"/>
<path d="M319 267L323 265V266L321 267H319Z" fill="#FF6D1F"/>
<path d="M277 212L281 211V212H277Z" fill="#FF6D1F"/>
<path d="M43 265.18C43 261.34 257.89 45 261.71 45C263.71 45 479.81 260.11 482.31 264.59C483.06 265.93 462.82 286.67 374.37 375.19C314.49 435.12 264.49 484.79 263.25 485.58C261.07 486.96 257.65 483.64 152 377.61C55.13 280.4 43 267.89 43 265.18ZM247 330L248 370L250.25 371.25C255.03 373.91 255.46 372.41 256 351.16C256.5 331.68 256.52 331.5 258.76 331.18C261.54 330.78 261.62 331.2 263 367V368.75C263 369.71 263.45 370.61 265 371L270.75 370.75C273.92 370.61 277.29 369.94 280 368L282.25 367.75C283.49 367.61 285.06 367.84 287 369L290.65 370.61C294.76 372.44 301.23 371.27 303 367L304.25 366.25C304.94 365.84 306.29 365.61 309 366L309.25 368.25C309.39 369.51 310.27 370.61 313 371L320.04 371.25C323.91 371.39 327.28 371.16 328 370L328.17 368.75C328.26 368.06 328.08 366.6 327.77 365.5C327.46 364.4 326.94 360.24 326 349L321.25 347.72C316.5 346.43 316.5 346.43 316 330H320L320.25 335.25C320.48 340.04 320.7 340.48 325 340L325.78 339.75C327.03 339.35 327.25 331.4 325 327L325.51 326.25C325.79 325.84 324.89 324.3 323.51 322.84C321 320.19 321 320.19 321 267L323 266L327 268V275L325.84 275.75C324.15 276.84 325.01 318.75 328 321L336 322L343 323L351 322L351.72 321.56C352.11 321.31 352.45 317.15 352.47 312.31C352.5 304.59 352.72 303.5 354.25 303.5C355.78 303.5 356.01 304.54 356 311.56C356 320.7 357.98 325.32 362.42 326.53C365.39 327.34 369 325.65 369 322L368.11 317.75C367.63 315.41 367.18 303.28 367.11 290.8C366.98 263.44 366.49 261.78 358.06 259.75C349.93 257.79 344.92 260.45 342 273L340.8 273.75C339.89 274.32 339.77 279.24 340.31 294C341.08 314.91 340.68 317.49 335 314L335.08 292.25C335.18 261.66 333.28 256.98 318 261L315.62 259.75C314.32 259.06 312.52 258.84 310 260L308.75 260.75C308.06 261.16 307.61 262.29 308 265L308.74 287.39C309.53 311.58 308.92 317.34 305.74 315.48C304.16 314.56 304 312.17 304 289.77C304 274.33 303.63 264.87 302 264L295 259L291.69 257.75C288.92 256.7 287.51 256.77 282.94 258.2C277.56 259.88 277.48 259.88 275.6 257.7C274.06 255.92 273.44 255.74 271 258L270 259L248 260L248.55 262.12C248.85 263.29 250.54 265.58 252.3 267.21C256.5 271.1 257.97 314.45 254.09 319.75C252.07 322.5 252.07 322.5 247 317L244 316L243 265L242.75 264C241.86 260.42 240.2 259.53 234.9 259.75C231.93 259.88 228.26 259.98 224 260L221.01 259.75C219.37 259.61 217.57 260.06 216 262L218 266L218.04 289.25C218.08 312.47 217.43 317.65 214.79 315.28C213.95 314.52 213.34 306.72 212 265L211.06 263.25C210.55 262.29 208.97 261.16 205 260L200.72 259.75C194.41 259.38 189.05 261.47 188 267L187.25 269.15C186.84 270.34 186.61 277.99 187 301L186.31 301.42C185.94 301.66 186.05 306.72 186.56 312.67C187.5 323.5 187.5 323.5 190.99 325C195.51 326.94 195.73 328.13 195.88 350.71C195.95 361.71 196.4 369.14 198 370L200.09 370.73C203.75 372.02 205.06 368.76 204 352H208L210 367L211 370L212.77 371.25C215.2 372.97 219.14 369.52 216 366L216.76 344.25C217.55 321.68 218.25 318.74 223 326L221 330V364L222 367L224 371L226.32 373.21C228.47 375.25 228.98 375.33 232.85 374.19C239.42 372.26 239.98 370.38 239.99 350.32C240 332.05 240.51 330 247 330ZM180 316L181 313V301L180 296L179.58 294.55C179.35 293.75 175.95 291.03 172.01 288.51C164.06 283.41 163.44 282.1 164.14 271.86C164.81 262.08 173 264.18 173 279V281.06C173 282.83 173.53 283.08 176.75 282.81C180.5 282.5 180.5 282.5 181 272V269.59C181 258.78 162.83 255.02 157.85 264.8C152.9 274.51 155.73 286.65 164.42 292.97C172.35 298.72 173.58 301.22 172 316H167L165.75 315.71C164.92 315.51 164.39 312.82 164.17 307.71C163.82 299.43 161.69 297.45 157.57 301.57C155.34 303.8 155.38 316.19 157.63 319C162.29 324.86 176.91 324.47 180 316ZM306 193L287.25 194.1C276.9 194.7 258.75 194.92 225 194L217.75 192.95C213.76 192.38 203.77 189.9 195.53 187.44C179.04 182.53 175.1 182.5 168.54 187.27C158.57 194.51 162.19 215.04 173.9 217.6C176.71 218.22 176.9 218.57 177.19 223.67C178.14 240.32 206.87 250.61 255.5 251.73C308.48 252.96 342.23 242.97 347.51 224.5C348.81 219.97 349.79 218.58 353.5 216.04C363.91 208.93 364.13 192.68 353.91 186.53C347.02 182.38 343.76 182.44 330.04 186.96C323.24 189.2 315.05 191.47 306 193ZM247 181L249 175V171.06C249 168.02 247.91 165.49 244.28 160.04C239.55 152.97 239.55 152.97 240.82 148.23C243.41 138.58 243.43 138 241.05 138C233.83 138 232.34 150.68 238.35 161C243.61 170.03 243.95 172.64 240.86 180.03C238.17 186.43 240.33 188.58 247 181ZM265 160L262 156L261.08 153.25C260.43 151.32 260.62 148.95 261.71 145.31C263.58 139.06 263.22 137.44 260.19 138.39C253.58 140.47 253.22 152.84 259.49 162.33C264.35 169.7 264.88 172.41 262.42 177.51C259.9 182.72 260.82 185.95 264.24 183.88C269.27 180.84 270.77 172.76 265 160ZM281 154L281.25 150.75C281.39 148.96 281.84 146.49 283 143L282.75 140.25C282.4 136.44 278.45 138.54 276.43 143.61C273.85 150.08 274.56 154.16 279.74 162.7C284.48 170.5 284.48 170.5 282.57 177.31C279.65 187.7 285.03 187.99 288.7 177.63C290.85 171.57 289.79 166.36 281 154Z" fill="#FF6D1F"/>
<path d="M265 371.034L264 367.034V333.034L263.25 330.434C262.84 329.014 262.16 327.664 261 327.034C261.76 325.614 265.15 324.974 269.02 324.684C280.75 323.814 280.55 323.404 280.25 347.784L280 368.034C277.29 369.974 273.92 370.644 270.75 370.784L265 371.034ZM274 365.034H275L276 331.034L275.01 329.374C274.23 328.064 273.55 327.934 271.76 328.744C269.52 329.764 269.5 329.934 270 366.034L272 366.734C273.28 367.184 274 367.004 274 365.034Z" fill="white"/>
</svg>
